<?xml version="1.0" encoding="UTF-8" standalone="no"?>
<!-- Created with Inkscape (http://www.inkscape.org/) -->

<svg
   width="62.722328mm"
   height="62.72184mm"
   viewBox="0 0 62.722328 62.72184"
   version="1.1"
   id="svg1"
   xml:space="preserve"
   sodipodi:docname="fpm-color.svg"
   inkscape:version="1.3.2 (091e20e, 2023-11-25, custom)"
   xmlns:inkscape="http://www.inkscape.org/namespaces/inkscape"
   xmlns:sodipodi="http://sodipodi.sourceforge.net/DTD/sodipodi-0.dtd"
   xmlns="http://www.w3.org/2000/svg"
   xmlns:svg="http://www.w3.org/2000/svg"><sodipodi:namedview
     id="namedview1"
     pagecolor="#ffffff"
     bordercolor="#000000"
     borderopacity="0.25"
     inkscape:showpageshadow="2"
     inkscape:pageopacity="0.0"
     inkscape:pagecheckerboard="0"
     inkscape:deskcolor="#d1d1d1"
     inkscape:document-units="mm"
     inkscape:zoom="2.0000001"
     inkscape:cx="-84.999996"
     inkscape:cy="104.74999"
     inkscape:window-width="1920"
     inkscape:window-height="1051"
     inkscape:window-x="-9"
     inkscape:window-y="-9"
     inkscape:window-maximized="1"
     inkscape:current-layer="layer2"
     showgrid="true"><inkscape:grid
       id="grid1"
       units="mm"
       originx="-0.85090204"
       originy="-0.88212117"
       spacingx="0.99999998"
       spacingy="1"
       empcolor="#0099e5"
       empopacity="0.30196078"
       color="#0099e5"
       opacity="0.14901961"
       empspacing="5"
       dotted="false"
       gridanglex="30"
       gridanglez="30"
       visible="true" /></sodipodi:namedview><defs
     id="defs1"><rect
       x="163.1105"
       y="169.74873"
       width="78.886901"
       height="31.278816"
       id="rect1" /></defs><g
     inkscape:groupmode="layer"
     id="layer5"
     inkscape:label="Layer 3"
     transform="translate(-0.85090202,-0.88212119)"><rect
       style="fill:#ffffff;fill-opacity:1;stroke-width:0.265416"
       id="rect34"
       width="37.570843"
       height="43.39167"
       x="13.357649"
       y="11.350573" /></g><g
     inkscape:groupmode="layer"
     id="layer2"
     inkscape:label="Layer 2"
     transform="translate(-0.85090202,-0.88212119)"><g
       id="g3"
       transform="matrix(0.32667492,0,0,0.32667492,16.034498,19.505007)"
       inkscape:label="g3"
       style="display:inline"><g
         id="g1"><circle
           cx="92.5"
           cy="74.815002"
           r="2.5"
           id="circle1"
           inkscape:label="ball"
           style="fill:#002d72;fill-opacity:1" /></g><g
         id="g2"
         style="fill:#002d72;fill-opacity:1"><path
           d="m 59.142,30.359 0.937,-0.756 -0.061,-1.143 4.02,-4.138 c 0,0 0.04,-3.191 -1.025,-6.107 -1.063,-2.917 -2.814,-8 -2.814,-8 0,0 0,-0.769 -0.8,-2.572 0,0 0.326,-1.684 -0.943,-2.305 -1.273,-0.621 -4.436,-0.296 -5.261,0.236 -0.831,0.532 -3.31,1.076 -3.205,1.824 0.052,0.374 0.176,2.282 1.228,2.344 1.585,0.094 2.39,0.997 3.068,1.713 0,0 0.474,2.128 -0.088,4.256 -0.562,2.128 0,3.043 0,3.043 l -2.422,5.615 c 0,0 0.353,-2.069 -0.207,-3.162 -0.561,-1.094 -1.303,-3.043 -1.303,-3.043 0,0 0.745,-0.39 2.309,-0.242 0.395,-0.629 -3.126,-1.523 -3.126,-1.523 0,0 -1.96,-2.915 -5.114,-1.379 -3.148,1.537 -4.253,4.296 -2.481,7.566 0,0 2.171,2.878 3.232,4.809 0,0 -2.049,0.984 -1.892,1.734 0.159,0.749 1.498,2.6 1.498,2.6 0,0 0.75,1.025 1.103,2.641 0.354,1.615 1.931,3.389 1.931,3.389 0,0 1.068,1.717 2.145,3.403 0.895,1.407 1.358,1.247 1.239,3.55 -0.119,2.305 -0.945,4.311 -1.596,5.73 -0.648,1.418 -1.148,2.061 -0.03,8.869 l -2.522,5.393 c 0,0 -2.287,4.098 -2.758,6.146 -0.474,2.05 -2.679,7.881 -3.549,8.354 -0.865,0.472 -2.755,0.159 -3.546,2.525 -0.785,2.362 -0.51,2.342 -1.574,4.174 -1.063,1.832 -2.026,3.27 -1.87,6.03 0.514,1.929 2.461,2.252 2.461,2.252 0,0 1.973,0.035 2.68,-1.937 0,0 1.024,-3.231 1.813,-3.231 0.787,0 2.363,-0.041 2.363,-0.041 0,0 5.951,-8.666 8.394,-9.849 2.445,-1.184 6.776,-13.399 6.776,-13.399 l -0.077,6.305 c 0,0 -1.439,2.227 -0.848,5.891 0.591,3.664 -1.833,9.281 -1.833,9.281 0,0 0.396,0.906 -0.197,2.482 -0.588,1.574 -1.16,1.536 -1.16,1.536 0,0 -0.792,1.823 -0.954,3.323 -0.062,0.591 2.424,0.504 4.145,0.175 2.187,-0.414 5.795,0.257 5.795,0.257 0,0 3.701,0.269 3.962,-1.095 0.292,-1.525 -5.744,-2.16 -6.002,-2.693 -0.063,-0.135 0.054,-0.618 0.374,-1.317 0.124,-0.275 1.212,-0.574 1.371,-0.896 1.048,-2.124 1.712,-4.965 1.712,-4.965 0,0 1.181,-1.007 1.476,-1.479 0.297,-0.473 0.297,-7.329 1.715,-8.747 1.42,-1.418 0.721,-13.485 0.721,-13.485 0,0 0.473,-8.104 0,-8.657 -0.473,-0.552 -2.052,-7.597 -2.052,-7.597 0,0 -0.021,-0.652 -2.701,-5.697 -2.68,-5.045 -4.457,-7.991 -4.457,-7.991 z"
           id="path1-5"
           style="display:inline;fill:#002d72;fill-opacity:1"
           inkscape:label="man" /><path
           d="M 51.216,9.17 7.567,22.352 c 0,0 0.161,3.467 -1.34,3.625 C 4.731,26.135 4.574,21.486 5.914,21.407 7.257,21.328 50.349,8.067 50.349,8.067 Z"
           id="path2"
           inkscape:label="bat"
           style="fill:#002d72;fill-opacity:1" /></g></g><path
       style="fill:#046a38;fill-opacity:1;stroke-width:0.250909"
       d="M 26.473774,62.213949 C 20.527962,61.140219 14.563595,57.697043 10.226934,53.387864 -1.8569919,41.380522 -1.094214,22.044177 11.239767,10.260364 16.366003,5.3627859 22.491525,1.7457862 30.268232,1.8800728 l 1.547966,0.026728 0.07016,4.4355147 v 4.6810695 l -9.772714,-0.04677 -8.90743,-0.09354 0.0069,14.63249 0.217318,14.819577 0.883465,2.562339 c 1.999506,5.799222 5.292328,9.229198 11.144612,11.159543 1.241999,0.409665 2.851999,0.746066 3.922091,0.910563 l 2.599356,0.399576 0.09354,3.741886 -0.140317,3.367707 -1.597906,0.258117 c -0.71533,0.115548 -2.770846,-0.323969 -3.861448,-0.520917 z"
       id="path3"
       sodipodi:nodetypes="sssscccccccssscccsss"
       inkscape:label="red" /><path
       style="fill:#da291c;fill-opacity:1;stroke-width:0.125454"
       d="m 32.618973,59.012144 0.02339,-3.34024 1.040244,-0.313434 c 5.254836,-1.583327 8.962358,-2.14376 12.022,-5.055404 2.661766,-2.533015 4.190716,-5.563709 5.156485,-9.676146 0.272942,-1.162248 0.486733,-1.288264 0.502761,-15.58925 l 0.01588,-14.157532 -9.192453,0.112431 -9.427974,-0.116929 -0.09354,-4.4993147 0.02339,-4.429154 1.705131,-0.187087 c 0.962943,-0.1056561 3.215166,0.5750878 4.721989,0.9015546 10.301859,2.2319826 18.620158,10.0779491 21.888217,20.0468411 1.120717,3.418633 1.649037,5.97258 1.649037,9.511458 0,3.527838 -0.553477,6.28989 -1.660094,9.658898 -3.02015,9.194593 -10.589643,16.660881 -19.923804,19.534118 -2.229599,0.686311 -5.610598,1.3314 -7.306768,1.173292 l -1.003551,-0.09354 z"
       id="path4"
       inkscape:label="green"
       sodipodi:nodetypes="ccsssscccccssssssscc" /><text
       xml:space="preserve"
       id="text1"
       style="font-size:26.6667px;white-space:pre;shape-inside:url(#rect1);display:inline;fill:#000000"
       transform="matrix(0.26458333,0,0,0.26458333,-18.974524,-31.807999)"
       inkscape:label="text-full"><tspan
         x="163.11133"
         y="194.07689"
         id="tspan4"><tspan
           style="font-family:Arial;-inkscape-font-specification:Arial;fill:#002d72"
           id="tspan1">F.P.M</tspan></tspan></text></g><g
     inkscape:groupmode="layer"
     id="layer3"
     inkscape:label="Layer 1"
     transform="translate(-0.85090202,-0.88212119)"><path
       d="m 62.286091,35.324361 c -0.0469,0.50435 -0.11218,0.99934 -0.18677,1.50367 -0.0747,0.49498 -0.16808,0.98997 -0.2708,1.48497 -0.40161,1.97157 -0.9993,3.86655 -1.76517,5.67841 -0.0925,0.22505 -0.18676,0.43896 -0.28879,0.65375 -0.37467,0.83125 -0.79477,1.65313 -1.24306,2.44788 -0.11218,0.20442 -0.23366,0.41936 -0.36418,0.62575 -0.61642,1.02643 -1.28885,2.01641 -2.01731,2.95971 -0.14029,0.18677 -0.28954,0.37354 -0.4483,0.56037 -0.2989,0.37353 -0.61644,0.73778 -0.92461,1.09269 -0.14931,0.17739 -0.30828,0.34543 -0.46698,0.51369 -0.33603,0.35479 -0.68181,0.70048 -1.01799,1.03667 -0.1774,0.17852 -0.34542,0.33642 -0.52212,0.49501 -0.17852,0.16809 -0.35593,0.32704 -0.53328,0.48567 -0.1774,0.15869 -0.35479,0.31767 -0.54168,0.46698 -0.19616,0.16908 -0.40161,0.33641 -0.59679,0.49499 -0.16909,0.14095 -0.34655,0.27079 -0.52394,0.40155 -0.18678,0.14933 -0.38294,0.28956 -0.5697,0.42963 -0.19614,0.14933 -0.39227,0.28956 -0.58842,0.42029 -0.19616,0.1402 -0.39223,0.27078 -0.58838,0.40158 -0.20553,0.14021 -0.4016,0.26142 -0.60705,0.39228 -1.13007,0.709769 -2.30687,1.344909 -3.53036,1.895929 -0.20553,0.10279 -0.42025,0.18677 -0.62573,0.28012 -0.1309,0.056 -0.25204,0.10281 -0.37355,0.15873 -0.21491,0.0839 -0.42962,0.16806 -0.64441,0.25203 -0.1309,0.056 -0.26141,0.10339 -0.39226,0.14933 -0.21491,0.084 -0.42963,0.15869 -0.64442,0.23366 -0.25204,0.0839 -0.50433,0.16805 -0.75651,0.24266 -0.23366,0.0747 -0.47632,0.14933 -0.70983,0.21565 -0.24303,0.0739 -0.47631,0.13901 -0.71912,0.19615 -0.49499,0.12972 -0.98998,0.25129 -1.49431,0.35403 -0.23366,0.047 -0.46698,0.0933 -0.70048,0.13092 -0.49499,0.0933 -0.98998,0.16806 -1.49431,0.23364 -0.25205,0.0375 -0.50434,0.0655 -0.75648,0.0933 -0.25204,0.0263 -0.50433,0.047 -0.76586,0.0654 -0.50433,0.047 -1.02734,0.0746 -1.54101,0.084 -0.0653,0.012 -0.13989,0.012 -0.20552,0.012 v -6.828109 c 0.28954,-0.0263 0.56974,-0.056 0.8499,-0.0839 0.28016,-0.0375 0.55102,-0.0747 0.82188,-0.11223 0.27079,-0.0375 0.54169,-0.084 0.80322,-0.13092 0.2614,-0.0457 0.53234,-0.0933 0.79382,-0.14035 l 0.7285,-0.16807 c 0.24266,-0.056 0.48566,-0.1215 0.71912,-0.18679 0.23366,-0.0551 0.46698,-0.12151 0.70049,-0.19614 0.22427,-0.0654 0.45763,-0.1402 0.67243,-0.21491 0.22428,-0.0738 0.43895,-0.14842 0.65379,-0.23364 0.21489,-0.0739 0.42023,-0.1587 0.62573,-0.24267 0.61639,-0.25202 1.20477,-0.53144 1.75583,-0.82189 0.1774,-0.10281 0.36417,-0.19615 0.54169,-0.29891 0.16802,-0.10279 0.34542,-0.20553 0.51367,-0.3083 0.16801,-0.11102 0.33641,-0.21491 0.49499,-0.32704 0.16802,-0.1028 0.32704,-0.21377 0.48565,-0.32706 0.14928,-0.11221 0.30829,-0.22427 0.45764,-0.34541 0.59771,-0.45762 1.14875,-0.94234 1.64374,-1.43827 0.13089,-0.12149 0.25203,-0.25204 0.36417,-0.37356 0.24303,-0.25204 0.46698,-0.51367 0.6818,-0.7649 0.11218,-0.13153 0.21491,-0.26254 0.31767,-0.3932 0.10278,-0.13093 0.20553,-0.26141 0.29891,-0.39225 0.58839,-0.79385 1.08338,-1.59706 1.49431,-2.38155 0.0653,-0.13916 0.13092,-0.27079 0.19616,-0.40163 0.12155,-0.22426 0.22428,-0.45763 0.32704,-0.68178 0.0653,-0.15871 0.1403,-0.32705 0.20554,-0.48567 0.1587,-0.38294 0.29891,-0.75646 0.42121,-1.13005 0.0457,-0.1215 0.0834,-0.24192 0.12037,-0.35482 0.23365,-0.72849 0.40156,-1.40091 0.53234,-2.00797 0.0653,-0.28953 0.11218,-0.56974 0.1587,-0.8219 0.0263,-0.20552 0.0653,-0.41093 0.0851,-0.58836 0.0188,-0.1215 0.0263,-0.23367 0.0375,-0.33641 0.007,-0.0263 0.007,-0.0643 0.0188,-0.0933 0.007,-0.11223 0.0188,-0.22427 0.0263,-0.31765 0.0469,-0.46697 0.0469,-0.74719 0.0469,-0.76587 v -26.9917 h -18.595 V 2.0198433 c 0.0653,0 0.14026,0 0.20553,0.01193 0.51367,0.0075 1.03668,0.0376 1.54101,0.08315 0.26141,0.01884 0.51367,0.0374 0.76581,0.06543 0.25203,0.02632 0.50433,0.05596 0.75652,0.09337 0.50433,0.06543 0.99932,0.140208 1.49431,0.233636 0.23366,0.0376 0.46698,0.0839 0.70048,0.130927 0.50433,0.102793 0.99933,0.224308 1.49432,0.354818 0.24303,0.05597 0.47631,0.121496 0.71912,0.196146 0.23328,0.06543 0.47632,0.140208 0.70982,0.214914 0.25203,0.07471 0.50432,0.158683 0.75648,0.243029 0.21491,0.07471 0.42961,0.149337 0.64445,0.233266 0.13088,0.04697 0.2614,0.09337 0.39226,0.149659 0.21491,0.0839 0.42959,0.168067 0.64441,0.252035 0.12152,0.05596 0.24266,0.102802 0.37355,0.158711 0.20553,0.09337 0.42029,0.177405 0.62574,0.280169 0.78453,0.354791 1.54105,0.738757 2.28818,1.158111 0.20553,0.112224 0.42029,0.233635 0.62573,0.364174 0.20553,0.121496 0.41095,0.243011 0.61644,0.373541 0.20552,0.130927 0.4016,0.252044 0.60706,0.392271 0.19615,0.130927 0.39225,0.261429 0.58838,0.401608 0.19614,0.130927 0.39225,0.270785 0.58838,0.42121 0.18677,0.139157 0.38292,0.279043 0.56973,0.429648 0.1774,0.129725 0.35481,0.2606426 0.52396,0.4006516 0.19501,0.158683 0.40066,0.327044 0.59678,0.494988 0.18676,0.149337 0.36416,0.309052 0.54167,0.466987 0.1774,0.1586638 0.35481,0.3176598 0.5333,0.4856511 0.17664,0.158683 0.34465,0.31765 0.52206,0.49498 0.16807,0.168078 0.33604,0.336039 0.50433,0.504325 0.16807,0.177405 0.33717,0.35479 0.51367,0.532355 0.1587,0.168068 0.31766,0.33606 0.46697,0.513673 0.30831,0.35479 0.62578,0.719125 0.92461,1.092723 0.15871,0.187517 0.30831,0.37353 0.44831,0.560347 0.72849,0.943283 1.40091,1.933269 2.01735,2.960651 0.1309,0.206268 0.25203,0.420254 0.36417,0.625736 0.44827,0.79385 0.86854,1.615713 1.24308,2.446921 0.10157,0.214905 0.19614,0.429639 0.28841,0.653767 0.76584,1.812805 1.36357,3.707787 1.76517,5.678423 0.10279,0.494979 0.19615,0.989968 0.27079,1.484966 0.0747,0.504325 0.14029,0.999323 0.18677,1.503696 0.0188,0.187518 0.0375,0.364184 0.0571,0.55103 0.0645,0.831159 0.10158,1.681089 0.10158,2.530984 0,0.84991 -0.0374,1.70071 -0.10158,2.53098 -0.0188,0.18679 -0.0374,0.36418 -0.0571,0.55105 z m -29.47544,19.18333 -0.55102,0.047 h -0.0375 c -8.928572,-0.64442 -13.458207,-4.66977 -15.74639,-8.62036 -2.288182,-3.94127 -2.344216,-7.81718 -2.344216,-8.16272 V 11.910474 h 36.199866 v 25.861077 c 0,0.62573 -0.19613,15.16736 -17.52088,16.73637 z m -1.07403,7.958139 c -0.26142,0 -0.51367,-0.012 -0.76586,-0.0187 -0.51367,-0.0188 -1.017997,-0.056 -1.522327,-0.10281 -0.270789,-0.0264 -0.541687,-0.056 -0.812548,-0.0839 -0.476313,-0.056 -0.952628,-0.12151 -1.428942,-0.20553 -0.747139,-0.12151 -1.475635,-0.27079 -2.19476,-0.44826 -0.233656,-0.056 -0.476314,-0.12151 -0.70982,-0.1868 -0.233658,-0.056 -0.476315,-0.13093 -0.709783,-0.2055 -0.243034,-0.0653 -0.476314,-0.14035 -0.709822,-0.21491 -0.214903,-0.0654 -0.429619,-0.14035 -0.644411,-0.21492 -1.867902,-0.653 -3.642417,-1.48514 -5.314167,-2.47513 -0.205526,-0.12151 -0.410942,-0.24189 -0.61643,-0.373539 -4.090685,-2.54036 -7.536959,-6.03334 -10.011926,-10.16137 -0.252182,-0.41094 -0.494991,-0.83121 -0.71914,-1.26083 -0.09338,-0.16808 -0.186774,-0.34544 -0.27086,-0.52302 -0.121395,-0.2149 -0.224131,-0.43896 -0.326895,-0.65375 -1.195453,-2.46567 -2.064027,-5.1274 -2.540342,-7.91057 -0.0375,-0.20552 -0.0747,-0.40999 -0.102736,-0.62572 -0.05603,-0.34543 -0.102737,-0.69115 -0.140084,-1.04606 -0.0375,-0.32707 -0.07473,-0.65377 -0.102737,-0.99 -0.06536,-0.83117 -0.102736,-1.67176 -0.102736,-2.52164 0,-0.849895 0.0375,-1.690415 0.102736,-2.521674 0.0375,-0.42962 0.08404,-0.85923 0.130747,-1.279511 0.01874,-0.07462 0.02814,-0.158683 0.0375,-0.233665 0.05604,-0.420263 0.121396,-0.840545 0.196151,-1.25151 0,-0.0374 0.0095,-0.0839 0.01875,-0.121495 0.0375,-0.22427 0.08405,-0.448294 0.130733,-0.672469 0.242848,-1.195412 0.560372,-2.362879 0.943291,-3.502296 0.0747,-0.233636 0.158762,-0.457621 0.242808,-0.691104 0.177436,-0.504346 0.373589,-1.008699 0.58839,-1.503697 0.09338,-0.223124 0.186776,-0.438956 0.28954,-0.653729 0.775174,-1.718477 1.709127,-3.352892 2.792507,-4.884544 0.140084,-0.205529 0.280198,-0.401608 0.420276,-0.588416 0.186775,-0.252044 0.373588,-0.504344 0.569708,-0.747155 0.29888,-0.382915 0.60707,-0.756485 0.924615,-1.120706 0.158762,-0.177424 0.317555,-0.364194 0.4856526,-0.541731 0.1494204,-0.177405 0.3175564,-0.354809 0.4949914,-0.532356 0.158764,-0.168067 0.326895,-0.345405 0.504334,-0.513672 0.168103,-0.177395 0.345572,-0.354771 0.523011,-0.504326 0.177436,-0.176637 0.35491,-0.345405 0.532352,-0.4949973 0.177437,-0.168058 0.35491,-0.3270258 0.541687,-0.4856318 0.177438,-0.158703 0.36425,-0.317689 0.551032,-0.466997 0.186778,-0.158683 0.373588,-0.308275 0.569721,-0.45763 0.382928,-0.2989196 0.775155,-0.5977346 1.167419,-0.8685756 0.196154,-0.149337 0.401606,-0.289554 0.597719,-0.410946 0.205528,-0.149336 0.401607,-0.280169 0.607095,-0.40157 0.205529,-0.14035 0.410942,-0.270785 0.625734,-0.392252 0.410944,-0.252035 0.840564,-0.495007 1.270184,-0.728538 0.214904,-0.121496 0.429621,-0.233636 0.644412,-0.336013 0.438959,-0.233673 0.877919,-0.448293 1.326218,-0.644438 0.224278,-0.102794 0.448297,-0.205548 0.672427,-0.289535 0.681806,-0.289563 1.372911,-0.560423 2.082729,-0.793898 0.23366,-0.0839 0.466977,-0.158683 0.700445,-0.224261 0.709823,-0.223161 1.438282,-0.419354 2.176121,-0.588377 0.242656,-0.06449 0.494989,-0.112226 0.737797,-0.158703 0.466977,-0.102793 0.933954,-0.186798 1.410264,-0.261419 0.280167,-0.0374 0.551027,-0.08409 0.831226,-0.111023 0.252034,-0.0374 0.513671,-0.06628 0.765817,-0.08504 0.76585,-0.084 1.541046,-0.130927 2.316196,-0.148437 0.0746,-0.01193 0.14965,-0.01193 0.22428,-0.01193 V 10.77904 H 12.992579 v 26.991111 c 0,0.20553 0.196115,16.3161 18.744372,17.88605 z m 1.04601,-61.57620881 v -0.0075 h -0.5697 c -0.15864,0 -0.31767,0 -0.47631,0.0075 C 14.664014,1.1416552 0.85090202,15.105271 0.85090202,32.242321 c 0,3.7825 0.67244198,7.41559 1.90525698,10.77778 0.177437,0.47633 0.364247,0.95263 0.56971,1.41962 0.887247,2.11165 2.007991,4.10935 3.324855,5.94922 0.513674,0.71918 1.055369,1.41028 1.625077,2.08274 0.569704,0.67244 1.158097,1.3262 1.783841,1.9426 1.064702,1.06472 2.204121,2.04535 3.418238,2.96065 0.401605,0.29888 0.812547,0.58836 1.223489,0.868559 0.420283,0.28016 0.849903,0.551 1.288862,0.82186 0.859239,0.52299 1.74646,0.99932 2.661734,1.44761 0.691142,0.32703 1.391587,0.6351 2.110746,0.91526 0.476317,0.18679 0.961968,0.36419 1.447621,0.52301 2.997968,1.01894 6.192084,1.58776 9.526289,1.64473 0.1774,0.008 0.36417,0.008 0.54168,0.008 h 0.0263 c 0.18678,0 0.37355,0 0.56037,-0.008 16.98855,-0.34656 30.70826,-14.299729 30.70826,-31.353639 0,-17.081927 -13.765366,-31.060011 -30.791286,-31.35890101 z"
       id="path1"
       style="display:inline;fill:#ffe900;fill-opacity:1;fill-rule:evenodd;stroke:none;stroke-width:0.992312"
       inkscape:label="yellow"
       sodipodi:nodetypes="cccccccccccccscccccccccccccccccccccccccccccccccccccccccccccccccccccccccscccccccccccccccccccccccccccccccccccccccccccscccccccsccsccccccccccccccccccccccscccccccccccccccccccccccccccccccccccccccccsccccscscccsccccccccsscscc" /></g></svg>
